<?xml version="1.0" standalone="no"?>
<!DOCTYPE svg PUBLIC "-//W3C//DTD SVG 20010904//EN"
 "http://www.w3.org/TR/2001/REC-SVG-20010904/DTD/svg10.dtd">
<svg version="1.0" xmlns="http://www.w3.org/2000/svg"
 width="2388.000000pt" height="1668.000000pt" viewBox="0 0 2388.000000 1668.000000"
 preserveAspectRatio="xMidYMid meet">

<g transform="translate(0.000000,1668.000000) scale(0.100000,-0.100000)"
fill="#000000" stroke="none">
<path d="M17040 14684 c-150 -14 -361 -68 -490 -126 -212 -95 -398 -213 -689
-438 -58 -44 -114 -82 -125 -85 -12 -2 -826 -9 -1809 -16 -1637 -11 -3031 -9
-3045 6 -12 12 56 68 123 101 94 46 127 51 435 63 146 6 553 24 905 38 352 15
739 27 860 28 207 0 222 -1 260 -22 41 -22 123 -102 144 -141 12 -22 14 -22
301 -22 193 0 290 3 290 10 0 6 -35 46 -78 90 -68 69 -93 87 -183 130 -107 51
-279 101 -414 119 -267 38 -1798 12 -2095 -35 -102 -16 -118 -19 -285 -59
-369 -89 -699 -250 -1048 -511 -98 -74 -247 -210 -247 -226 0 -5 60 -8 134 -8
l135 0 178 135 179 134 2694 -9 2694 -10 86 83 c47 46 113 107 148 135 68 56
281 186 409 250 139 71 352 135 558 169 139 23 514 23 780 -1 99 -8 248 -20
330 -26 161 -12 788 -94 1022 -135 183 -32 672 -135 878 -185 294 -71 732
-214 970 -315 212 -91 476 -231 634 -338 88 -59 94 -55 87 51 -18 277 -287
448 -1066 681 -431 129 -688 192 -1000 245 -226 38 -900 133 -1075 151 -33 4
-112 13 -175 20 -180 23 -527 53 -723 65 -161 9 -601 12 -687 4z"/>
<path d="M17400 14170 c-197 -11 -435 -60 -675 -137 -137 -44 -237 -88 -358
-157 -355 -201 -585 -435 -828 -842 -65 -110 -362 -695 -471 -929 -26 -55 -72
-154 -103 -220 -31 -66 -67 -145 -80 -175 -13 -30 -41 -93 -63 -141 -22 -47
-79 -184 -127 -305 -90 -227 -152 -357 -192 -405 -42 -49 -100 -69 -220 -76
-120 -6 -155 -19 -171 -60 -6 -15 -13 -84 -15 -153 -7 -195 -45 -299 -145
-403 -84 -87 -208 -164 -297 -185 -62 -15 -129 -34 -420 -121 -148 -45 -295
-88 -325 -97 -30 -9 -82 -25 -115 -35 -33 -11 -100 -29 -150 -40 -49 -11 -117
-26 -150 -34 -33 -7 -116 -25 -185 -40 -132 -27 -226 -48 -325 -70 -61 -14
-262 -54 -390 -77 -57 -11 -71 -17 -82 -38 -14 -30 -53 -158 -53 -177 0 -17
28 -17 99 1 98 24 251 40 263 28 27 -27 -90 -281 -254 -552 -82 -136 -150
-239 -340 -508 -26 -37 -48 -73 -48 -80 0 -7 14 -21 31 -30 17 -9 93 -53 168
-97 255 -151 649 -433 748 -537 42 -44 100 -143 199 -339 82 -165 154 -290
170 -296 15 -6 66 22 204 112 328 213 673 384 1175 582 395 156 1023 365 1735
579 209 63 483 142 585 169 28 7 84 22 125 33 425 115 971 237 1400 312 30 5
93 16 140 25 123 21 383 63 465 75 39 5 115 17 170 25 105 16 168 25 350 50
61 8 160 22 220 30 61 8 146 19 190 25 44 5 136 16 205 25 267 32 295 36 660
76 139 15 356 36 605 59 121 11 270 24 330 30 101 9 294 25 630 50 292 22 422
31 660 45 138 8 320 19 405 25 85 5 236 14 335 20 262 16 409 30 420 41 22 22
33 865 15 1194 -20 362 -50 558 -88 569 -36 10 -194 35 -352 56 -91 11 -214
27 -275 35 -60 8 -139 17 -175 20 -36 3 -96 10 -135 15 -122 17 -415 39 -430
34 -12 -5 -12 -10 2 -37 17 -35 53 -85 94 -133 24 -29 40 -82 78 -259 10 -45
44 -253 70 -425 6 -36 17 -108 26 -160 38 -226 38 -224 2 -234 -75 -20 -111
-1 -130 66 -14 49 -23 100 -63 373 -32 215 -49 309 -86 455 -33 134 -114 284
-175 324 -60 39 -107 45 -245 30 -183 -19 -833 -104 -1223 -160 -55 -8 -131
-18 -170 -24 -116 -16 -274 -39 -375 -55 -186 -29 -396 -55 -452 -55 -31 0
-60 -4 -63 -10 -3 -5 14 -51 39 -102 102 -207 206 -699 206 -974 0 -95 -2
-104 -22 -118 -25 -18 -65 -20 -102 -6 -29 11 -30 15 -46 230 -11 153 -14 181
-46 375 -34 210 -82 339 -188 499 -25 38 -47 72 -48 76 -2 4 -127 4 -278 -1
-151 -4 -385 -8 -520 -9 l-245 0 -23 -36 c-28 -43 -103 -80 -194 -96 -99 -17
-1256 -17 -1332 0 -36 9 -62 10 -68 4 -5 -5 -5 -75 1 -183 5 -95 7 -176 4
-179 -12 -12 -259 -5 -293 9 -86 35 -139 63 -163 87 -25 24 -47 96 -47 149 0
14 -3 25 -7 25 -5 0 -37 -5 -73 -10 -36 -5 -152 -16 -259 -25 -107 -8 -196
-16 -198 -19 -2 -2 45 -47 104 -101 120 -108 193 -188 193 -214 0 -9 -6 -25
-13 -36 -31 -41 -117 8 -296 167 -142 127 -154 133 -225 131 -53 -2 -131 -21
-361 -88 -61 -18 -127 -19 -143 -3 -18 18 -15 53 6 71 10 9 47 30 82 46 60 26
108 41 389 116 52 13 101 30 108 37 13 14 40 246 31 270 -10 26 -200 93 -393
139 -137 32 -169 58 -144 113 11 24 17 26 73 25 34 0 81 -4 106 -8 122 -23
203 -43 285 -70 50 -16 93 -26 97 -23 3 4 25 75 48 157 72 257 205 654 265
790 8 17 32 75 55 130 52 125 87 189 212 390 188 302 546 806 693 975 169 194
359 278 730 322 134 16 661 16 855 0 558 -46 1025 -104 1650 -207 101 -16 331
-60 526 -99 179 -36 417 -104 529 -151 321 -135 609 -370 1342 -1101 181 -180
237 -242 254 -280 12 -27 37 -72 55 -101 52 -82 74 -130 74 -163 0 -25 -8 -35
-47 -60 -75 -48 -310 -131 -448 -160 -84 -17 -323 -60 -337 -60 -21 0 -2 -32
55 -94 72 -79 90 -85 247 -86 52 0 147 -5 209 -10 63 -6 196 -17 295 -25 100
-9 216 -20 258 -25 42 -5 143 -12 223 -16 l147 -7 -7 24 c-19 61 -166 277
-513 754 -410 562 -515 690 -786 960 -486 484 -698 598 -1466 788 -348 87
-848 184 -1295 252 -49 7 -121 18 -160 24 -677 104 -1268 152 -1615 131z
m4560 -3413 c33 -16 60 -72 60 -122 0 -60 -37 -108 -113 -144 -100 -48 -211
-63 -421 -59 l-181 3 -52 33 c-112 72 -132 181 -41 228 28 15 45 15 142 5 154
-15 304 -2 421 38 98 33 146 38 185 18z m-2728 -364 c10 -9 30 -37 45 -62 23
-39 27 -58 28 -123 0 -68 -3 -79 -25 -104 -55 -60 -224 -117 -427 -144 -136
-19 -398 -8 -485 20 -170 53 -242 178 -172 298 38 65 74 77 166 57 193 -42
455 -24 654 45 118 42 180 45 216 13z m-2015 -93 c6 -30 9 -58 5 -62 -4 -4
-155 -41 -335 -82 -180 -42 -332 -78 -337 -81 -5 -3 -46 -70 -91 -149 l-82
-144 -487 -96 c-267 -53 -504 -96 -526 -96 -22 1 -48 8 -59 18 -25 21 -93 109
-174 227 l-62 90 53 12 c29 7 386 80 793 163 407 83 853 174 990 204 138 30
261 53 275 52 21 -1 26 -8 37 -56z"/>
<path d="M21802 10655 c-54 -17 -203 -33 -392 -43 l-145 -7 -3 -26 c-2 -14 5
-36 15 -48 38 -47 278 -53 477 -11 142 29 188 63 172 126 -5 20 -12 24 -44 23
-20 0 -56 -6 -80 -14z"/>
<path d="M19055 10254 c-178 -49 -286 -64 -469 -64 -94 0 -189 5 -211 11 -94
25 -92 25 -106 -20 -11 -38 -11 -44 8 -62 27 -28 75 -37 228 -45 197 -9 569
37 664 83 34 17 36 20 36 68 0 48 -1 50 -30 52 -16 1 -70 -9 -120 -23z"/>
<path d="M17435 13630 c-198 -9 -273 -23 -372 -70 -167 -78 -300 -207 -539
-525 -174 -230 -363 -509 -438 -647 l-37 -66 20 -74 c27 -100 44 -157 79 -268
41 -132 109 -340 119 -368 8 -21 14 -17 87 64 190 207 375 295 681 325 102 10
143 9 275 -5 454 -51 705 -156 824 -344 35 -56 83 -186 111 -301 14 -57 25
-106 25 -107 0 -12 431 18 538 37 l62 11 0 42 c-1 118 -126 703 -242 1126 -11
41 -24 89 -28 105 -27 100 -100 335 -142 458 -53 156 -223 581 -241 605 -10
13 -498 15 -782 2z"/>
<path d="M18366 13611 c-7 -10 26 -106 89 -261 66 -164 175 -481 244 -711 55
-183 121 -436 177 -676 8 -35 21 -91 29 -125 22 -99 63 -306 75 -388 16 -112
18 -118 39 -125 11 -3 75 1 143 9 68 9 161 20 208 26 47 6 157 20 245 31 88
11 212 26 275 34 202 25 401 52 735 101 113 16 231 36 237 40 16 10 8 194 -12
296 -51 259 -147 580 -211 708 -66 133 -353 613 -424 712 -19 26 -52 56 -72
67 -68 34 -359 98 -648 141 -77 11 -167 25 -200 30 -144 23 -521 65 -857 94
-37 4 -69 2 -72 -3z"/>
<path d="M10995 13600 l-650 -5 -585 -389 c-678 -450 -2670 -1769 -3002 -1988
-151 -100 -185 -125 -178 -131 8 -8 1024 -26 2015 -38 501 -5 989 -15 1085
-21 96 -5 821 -14 1610 -18 789 -5 1500 -13 1580 -19 243 -16 1375 -26 1442
-12 64 14 87 35 112 104 76 212 100 276 136 367 289 730 477 1150 646 1435
177 301 339 535 454 658 l62 67 -2038 -2 c-1122 -2 -2331 -5 -2689 -8z"/>
<path d="M20296 13341 c-3 -5 34 -69 82 -142 163 -248 361 -591 408 -712 24
-59 63 -172 98 -283 36 -117 88 -338 110 -464 l22 -135 95 -3 c52 -2 140 0
197 3 l103 7 -6 32 c-28 142 -150 428 -253 594 -29 46 -52 85 -52 86 0 4 146
-12 203 -23 186 -34 359 -168 473 -367 98 -170 127 -209 154 -208 37 2 340 89
407 118 32 13 59 31 61 39 5 25 -63 95 -323 337 -62 57 -395 346 -451 390 -17
14 -96 77 -175 141 -424 340 -626 450 -1054 574 -101 29 -92 28 -99 16z"/>
<path d="M15873 12028 c-38 -50 -253 -806 -302 -1066 -15 -75 -16 -94 -5 -103
14 -12 177 -1 434 27 192 22 194 23 185 77 -24 155 -198 830 -260 1010 -21 62
-35 77 -52 55z"/>
<path d="M16831 11854 c-187 -46 -406 -222 -491 -393 -36 -72 -51 -193 -31
-243 l11 -28 203 0 c112 0 272 3 355 7 l151 6 12 30 c19 45 117 141 175 170
107 54 141 58 537 64 331 5 367 7 367 22 0 73 -248 249 -441 312 -152 50 -241
61 -519 65 -216 3 -277 1 -329 -12z"/>
<path d="M21480 11439 c-30 -4 -559 -78 -1175 -164 -616 -86 -1121 -158 -1123
-160 -3 -2 17 -36 43 -75 42 -64 50 -71 74 -66 60 13 488 78 781 120 329 47
477 65 745 91 88 9 198 20 245 26 47 5 164 18 260 29 236 26 342 40 352 46 17
11 6 42 -33 89 -63 76 -70 79 -169 64z"/>
<path d="M17331 11362 c-19 -2 -53 -16 -76 -32 -45 -31 -125 -114 -125 -130 0
-7 172 -10 520 -10 449 0 520 2 520 15 0 8 -5 48 -11 90 l-11 75 -392 -2
c-215 -1 -406 -3 -425 -6z"/>
<path d="M18587 11060 c-196 -20 -359 -39 -361 -41 -12 -13 -86 -123 -86 -128
0 -7 222 3 547 24 127 8 266 15 307 15 l76 0 -19 48 c-32 81 -61 122 -84 121
-12 -1 -183 -18 -380 -39z"/>
<path d="M6135 10889 c-44 -5 -123 -22 -175 -38 -172 -53 -383 -108 -840 -217
-67 -16 -84 -20 -235 -54 -49 -11 -108 -24 -130 -30 -107 -25 -332 -71 -595
-124 -173 -35 -403 -84 -530 -113 -36 -8 -81 -18 -100 -23 -78 -17 -337 -85
-385 -100 -16 -6 -77 -24 -135 -41 -106 -31 -274 -83 -320 -99 -110 -38 -211
-73 -240 -85 -19 -8 -100 -39 -180 -71 -80 -31 -158 -62 -175 -70 -16 -7 -53
-22 -80 -32 -28 -11 -86 -36 -129 -56 -44 -21 -103 -47 -130 -58 -28 -12 -122
-57 -210 -101 -130 -65 -156 -81 -145 -91 68 -63 680 -252 832 -257 54 -2 84
16 199 118 199 176 596 442 814 545 112 52 149 49 174 -12 21 -50 -6 -75 -166
-155 -293 -147 -573 -336 -718 -484 -28 -28 -47 -53 -44 -57 8 -7 181 -28 703
-84 339 -37 403 -40 925 -50 518 -9 1199 -1 1615 20 429 21 616 30 835 40
1057 49 1638 80 2045 110 72 6 227 17 345 25 940 66 1057 84 2080 311 36 8 83
19 105 23 91 19 663 142 700 151 22 5 74 16 115 24 638 134 1309 315 1560 423
58 24 127 47 153 50 53 7 84 31 139 110 55 80 70 135 75 273 2 69 0 131 -4
137 -7 9 -89 16 -299 23 -748 26 -2584 53 -3199 48 -374 -3 -425 -5 -465 -21
-79 -31 -145 -46 -282 -62 -153 -18 -323 -42 -388 -55 -25 -4 -83 -15 -130
-24 -77 -14 -181 -35 -355 -71 -507 -104 -1451 -351 -1995 -522 -488 -153
-775 -274 -1051 -444 -196 -120 -249 -140 -279 -104 -20 24 15 71 110 148 205
166 364 249 780 406 482 182 1175 393 1800 547 183 45 347 84 395 94 22 4 105
22 185 40 80 17 172 38 205 45 135 29 204 48 200 55 -2 4 -282 10 -622 14
-340 4 -730 11 -868 16 -376 14 -1397 21 -1490 9z m7075 -212 c51 -26 30 -94
-38 -123 -74 -31 -284 -80 -802 -189 -146 -31 -292 -62 -325 -69 -33 -8 -87
-19 -120 -26 -33 -7 -87 -18 -120 -26 -33 -7 -85 -18 -115 -24 -30 -6 -107
-23 -170 -36 -63 -14 -149 -32 -190 -40 -41 -9 -104 -22 -140 -29 -36 -8 -119
-26 -185 -40 -66 -14 -151 -32 -190 -40 -38 -8 -124 -26 -190 -40 -66 -14
-154 -33 -195 -42 -41 -8 -102 -21 -135 -28 -33 -7 -116 -24 -185 -38 -69 -15
-156 -33 -195 -41 -190 -41 -372 -79 -480 -101 -66 -14 -185 -38 -265 -55
-300 -63 -741 -150 -763 -150 -31 0 -47 18 -47 53 0 23 7 31 34 42 53 23 371
102 641 160 137 29 634 140 700 155 22 6 103 23 180 40 77 17 149 33 160 36
11 2 83 18 160 35 77 17 167 37 200 44 33 8 143 32 245 54 102 23 266 59 365
81 99 22 209 47 245 54 36 8 119 26 185 41 253 56 506 112 570 126 44 9 130
28 245 54 41 9 102 23 135 30 33 6 175 38 315 70 140 32 271 61 290 65 57 12
153 11 180 -3z"/>
<path d="M11065 9370 c-226 -47 -277 -58 -530 -115 -409 -93 -940 -157 -1712
-205 -84 -6 -222 -14 -305 -20 -84 -5 -261 -17 -393 -25 -470 -30 -552 -35
-730 -45 -1312 -73 -2647 -118 -3190 -106 -472 10 -989 44 -1295 86 -451 61
-539 74 -735 111 -317 60 -539 130 -767 245 -90 45 -168 74 -198 74 -30 -1
-56 -35 -152 -195 l-67 -111 -3 -439 c-4 -421 -5 -443 -27 -520 -47 -167 -188
-593 -267 -809 -24 -66 -41 -123 -37 -127 5 -3 37 -16 73 -29 36 -12 137 -46
225 -77 235 -80 304 -100 465 -133 151 -30 274 -57 398 -85 l73 -17 32 25 c18
13 70 61 117 106 l85 82 50 -5 c60 -6 248 -28 485 -56 314 -36 523 -60 660
-75 74 -8 173 -19 220 -24 47 -5 162 -15 255 -22 94 -6 177 -14 186 -18 9 -3
51 -55 92 -116 42 -60 102 -148 133 -194 32 -45 67 -89 78 -96 50 -32 274 -39
1229 -37 515 0 937 -2 937 -6 0 -4 -34 -38 -75 -76 l-76 -68 -462 11 c-254 7
-545 16 -647 21 -102 5 -373 17 -602 26 l-418 18 -37 54 c-72 102 -152 199
-188 226 -42 32 -103 44 -570 106 -82 11 -181 25 -220 30 -38 6 -126 17 -195
26 -69 8 -197 24 -285 34 -88 11 -218 27 -290 35 -71 8 -152 17 -180 20 l-50
6 -105 -101 c-58 -55 -112 -100 -120 -100 -17 0 -516 101 -625 126 -148 35
-297 78 -484 140 -106 36 -195 63 -197 61 -2 -2 -8 -57 -14 -123 -9 -115 -30
-312 -50 -479 -14 -119 -15 -246 -1 -255 7 -4 58 -15 114 -24 56 -10 235 -42
397 -72 162 -30 300 -54 306 -54 6 0 19 26 29 58 25 83 27 92 22 92 -2 0 -78
13 -168 29 -90 16 -186 33 -214 37 -98 13 -99 18 -38 139 79 155 175 267 222
260 14 -3 96 -14 181 -25 85 -12 200 -27 255 -35 55 -8 233 -33 395 -55 162
-22 340 -47 395 -55 55 -8 170 -24 255 -35 85 -11 200 -27 255 -35 55 -8 170
-24 255 -35 85 -11 182 -25 215 -30 33 -5 130 -19 215 -30 178 -24 403 -55
505 -71 39 -5 120 -17 180 -25 61 -9 153 -22 205 -29 52 -7 145 -21 205 -29
61 -9 155 -23 210 -32 55 -8 143 -22 195 -30 267 -40 278 -43 321 -92 81 -92
199 -291 199 -335 0 -22 -6 -27 -35 -33 -31 -6 -293 20 -615 61 -240 30 -458
56 -528 62 -79 7 -81 5 -58 -51 19 -46 45 -53 266 -71 102 -8 232 -22 290 -30
97 -13 232 -30 455 -55 89 -10 398 -40 630 -60 450 -41 557 -51 695 -65 179
-18 314 -41 351 -60 51 -27 137 -134 411 -510 178 -245 229 -316 569 -793
l194 -273 675 7 c481 4 678 10 687 18 6 6 49 63 95 126 l83 115 -4 535 -3 535
157 150 c211 201 338 314 352 315 34 0 50 -257 63 -1015 5 -319 10 -633 10
-697 l0 -117 -72 -105 c-40 -58 -97 -139 -127 -181 -29 -42 -51 -79 -48 -82 8
-7 403 15 552 31 134 14 149 24 160 106 11 77 76 471 90 550 76 404 119 622
135 695 5 22 21 93 35 158 47 214 133 493 206 664 179 420 527 1110 680 1348
88 136 119 196 119 228 0 36 -50 120 -66 109 -12 -8 -172 -266 -277 -447 -42
-71 -106 -177 -143 -234 -36 -58 -120 -215 -186 -350 -66 -135 -156 -320 -200
-411 -93 -191 -148 -287 -183 -320 -22 -21 -27 -22 -50 -10 -60 32 -27 114
346 865 235 474 308 612 445 843 57 96 100 180 98 187 -15 39 -592 432 -763
519 -60 31 -115 56 -123 56 -7 0 -23 -17 -34 -38 -12 -20 -58 -78 -102 -127
l-79 -91 -139 -13 c-77 -7 -179 -16 -229 -21 -265 -25 -609 -55 -805 -70 -373
-28 -657 -52 -880 -75 -314 -32 -370 -39 -650 -75 -131 -17 -378 -58 -450 -76
-116 -28 -157 -45 -187 -77 -47 -50 -291 -395 -597 -844 l-117 -173 -85 0
c-46 0 -84 3 -84 8 0 4 37 54 81 112 158 205 226 296 294 390 121 169 286 401
393 555 57 83 107 154 112 158 4 4 36 12 71 18 291 43 718 99 1099 144 69 8
161 20 205 25 78 10 428 48 635 69 137 14 515 45 865 71 154 11 300 22 325 24
40 4 51 10 93 57 26 30 56 68 67 86 l19 33 -30 0 c-32 0 -781 -83 -1709 -190
-140 -16 -478 -55 -750 -85 -801 -90 -888 -103 -961 -140 -28 -15 -143 -161
-304 -390 -97 -136 -402 -543 -447 -596 l-23 -27 -330 -6 c-422 -8 -1913 8
-1941 20 -12 5 -50 47 -84 94 -96 130 -182 229 -217 251 -38 23 -85 32 -333
59 -320 34 -495 54 -1125 126 -71 8 -204 23 -295 34 -248 30 -225 34 -332 -66
l-92 -86 -45 7 c-257 37 -922 229 -938 270 -2 7 64 189 147 404 l150 393 0
302 c0 327 8 548 21 541 15 -10 177 -54 289 -79 122 -27 279 -55 457 -81 167
-25 189 -38 279 -166 l53 -75 168 -17 c282 -28 717 -69 988 -92 94 -8 188 -17
210 -20 22 -3 121 -12 220 -20 99 -8 201 -18 226 -21 l45 -6 100 113 c54 63
104 119 110 125 7 8 152 14 480 18 1614 22 2340 48 3009 106 61 6 175 15 255
20 199 15 460 39 550 51 41 5 138 19 215 30 292 41 423 58 530 69 420 45 670
84 1170 185 680 138 626 124 650 170 30 58 55 127 55 153 0 19 -5 22 -37 21
-21 0 -101 -13 -178 -29z m-3468 -2512 c13 -12 23 -33 23 -47 0 -36 -40 -117
-106 -219 -137 -209 -155 -295 -86 -412 20 -36 51 -94 67 -130 33 -72 89 -182
185 -365 74 -140 140 -288 140 -314 0 -10 -11 -23 -25 -29 -83 -38 -109 -5
-281 341 -198 400 -276 552 -293 571 -25 29 -18 92 19 166 49 99 198 343 247
405 48 61 72 69 110 33z m-647 -1058 c203 -14 216 -17 250 -51 57 -57 28 -121
-60 -134 -25 -3 -137 1 -250 9 -113 8 -340 20 -504 26 -397 15 -468 30 -451
100 11 43 31 55 113 62 103 9 733 1 902 -12z"/>
<path d="M11355 9060 c-41 -8 -74 -15 -235 -50 -52 -11 -120 -25 -150 -30 -30
-5 -93 -16 -140 -24 -117 -21 -314 -52 -440 -71 -58 -9 -132 -20 -165 -25 -59
-9 -88 -14 -405 -64 -252 -41 -448 -69 -560 -81 -30 -3 -86 -10 -125 -15 -66
-9 -240 -28 -455 -50 -239 -24 -398 -36 -785 -60 -415 -25 -697 -51 -786 -71
-26 -5 -55 -19 -64 -29 -16 -18 -16 -22 12 -82 75 -159 367 -630 398 -641 6
-2 141 9 300 24 160 16 389 38 510 49 346 31 310 21 359 99 24 36 67 111 96
167 l54 100 -42 85 c-22 46 -57 110 -77 142 l-37 57 -249 0 -250 0 -8 23 c-5
12 -6 25 -2 28 3 4 116 14 251 23 135 9 266 19 293 22 l47 5 85 -172 c49 -98
85 -184 85 -200 0 -31 -56 -136 -141 -267 l-48 -74 47 6 c26 3 146 15 267 26
283 26 504 49 531 55 26 6 62 59 136 204 l58 114 -36 66 c-20 36 -53 94 -73
129 l-36 63 -105 -6 c-58 -4 -143 -11 -190 -16 -177 -19 -209 -12 -194 43 12
39 0 37 336 67 314 29 278 35 318 -56 19 -43 58 -119 87 -169 l54 -92 -61
-100 c-33 -55 -60 -103 -60 -107 0 -3 -13 -26 -30 -50 -36 -52 -37 -65 -7 -65
13 0 209 25 437 55 228 30 418 55 421 55 10 0 50 81 119 239 49 113 61 150 54
167 -5 12 -44 64 -87 114 l-79 92 -56 -6 c-32 -4 -154 -13 -272 -21 -118 -9
-228 -16 -244 -18 -38 -3 -41 11 -13 47 22 28 31 30 238 62 220 34 426 51 444
37 6 -4 22 -24 35 -43 13 -19 64 -83 112 -142 48 -58 88 -114 88 -124 0 -18
-63 -139 -157 -301 -29 -51 -53 -95 -53 -98 0 -3 44 -5 98 -5 l99 0 104 147
c191 271 530 786 527 802 -3 13 -18 16 -73 17 -39 1 -88 -2 -110 -6z m-823
-467 c8 -10 34 -46 58 -80 l43 -62 -23 -58 c-40 -101 -92 -193 -109 -194 -9 0
-112 -6 -230 -12 -145 -8 -217 -9 -223 -2 -5 5 -31 42 -60 80 l-51 70 21 55
c29 78 68 169 75 176 3 3 110 13 238 23 129 10 237 19 240 20 3 0 13 -7 21
-16z m-992 -205 c23 -28 50 -69 61 -90 l19 -38 -57 -102 c-31 -57 -61 -106
-66 -109 -5 -4 -66 -12 -136 -18 -69 -7 -139 -14 -156 -17 -28 -5 -35 1 -99
85 -38 50 -73 91 -78 91 -12 0 4 28 75 128 33 48 61 88 62 89 1 1 71 9 156 16
85 8 160 15 166 16 7 0 31 -22 53 -51z m-937 -109 c31 -67 57 -126 57 -131 0
-13 -79 -145 -94 -157 -7 -6 -100 -22 -207 -36 -107 -13 -206 -27 -221 -29
-24 -5 -30 1 -58 49 -17 29 -49 75 -70 102 -22 26 -40 56 -40 66 0 17 108 204
138 240 14 15 38 17 226 17 l212 0 57 -121z"/>
<path d="M10220 8521 l-115 -6 -20 -40 c-11 -22 -31 -64 -43 -93 l-24 -52 30
-35 c17 -18 34 -41 39 -50 8 -14 28 -15 193 -5 101 6 188 14 193 17 13 8 77
148 77 168 0 9 -17 36 -37 61 l-37 44 -71 -2 c-38 -1 -122 -4 -185 -7z"/>
<path d="M9288 8373 l-78 -4 -52 -76 c-28 -43 -51 -82 -51 -88 0 -6 19 -37 43
-69 l44 -58 128 4 c122 3 128 4 145 28 36 50 82 143 76 154 -4 6 -25 35 -47
64 -39 50 -42 52 -86 50 -25 -1 -80 -4 -122 -5z"/>
<path d="M8238 8331 c-42 -3 -80 -9 -84 -13 -4 -5 -26 -43 -49 -85 l-42 -77
33 -46 c19 -25 46 -60 61 -78 l28 -32 159 17 158 18 28 40 c65 96 65 93 12
183 l-47 81 -90 -1 c-49 -1 -125 -4 -167 -7z"/>
<path d="M2823 8020 c-100 -20 -193 -106 -193 -180 0 -34 79 -111 145 -140 59
-27 212 -63 310 -74 124 -14 253 30 292 100 60 105 -7 217 -161 269 -91 31
-296 44 -393 25z"/>
<path d="M12193 6818 c-128 -134 -488 -832 -642 -1243 -116 -309 -273 -846
-330 -1127 -5 -24 -20 -99 -34 -168 -43 -206 -79 -428 -102 -620 -25 -213 -77
-365 -155 -454 -55 -63 -155 -96 -405 -135 -71 -12 -157 -25 -190 -31 -315
-52 -1035 -99 -1835 -121 -617 -17 -1423 -3 -2085 36 -137 8 -311 17 -385 20
-565 26 -1169 100 -1995 245 -187 33 -378 64 -425 70 -47 6 -155 25 -240 41
-85 17 -270 52 -410 79 -557 106 -1243 274 -2145 526 -49 14 -130 43 -179 65
-48 22 -90 38 -93 36 -13 -14 53 -123 113 -186 74 -79 120 -110 210 -142 61
-21 640 -190 824 -240 133 -37 769 -181 920 -209 63 -11 213 -43 332 -70 119
-28 317 -68 440 -91 123 -22 315 -60 428 -84 409 -88 607 -122 1205 -209 380
-56 500 -70 825 -95 628 -50 734 -53 1700 -55 615 -2 971 -6 1062 -14 216 -19
512 -58 768 -103 63 -11 151 -27 195 -34 44 -8 170 -30 280 -50 559 -101 703
-122 720 -104 21 25 95 306 95 367 0 27 -3 32 -17 28 -190 -57 -707 -156 -815
-156 -112 0 -100 39 20 64 229 48 204 43 687 161 445 109 528 129 648 156 54
12 100 27 102 33 2 6 8 236 14 511 11 494 25 681 61 841 31 135 53 223 65 264
7 25 21 72 30 105 25 87 107 351 177 570 162 501 279 754 533 1150 28 44 70
109 92 145 55 85 76 136 67 163 -11 35 -64 97 -83 97 -9 0 -31 -15 -48 -32z"/>
<path d="M1225 6387 c-52 -68 -52 -67 -11 -67 32 0 555 -64 886 -109 80 -11
181 -25 225 -31 44 -6 123 -17 175 -25 52 -8 158 -24 235 -35 77 -12 203 -33
280 -47 153 -27 279 -47 425 -68 52 -8 160 -23 240 -35 219 -32 368 -54 705
-100 83 -12 213 -30 290 -41 77 -11 190 -26 250 -34 61 -8 180 -23 265 -35
259 -34 270 -35 270 -19 0 23 -59 118 -83 133 -12 8 -95 24 -187 36 -242 31
-367 47 -535 70 -82 12 -199 27 -260 35 -60 8 -175 24 -255 35 -80 11 -194 27
-255 35 -139 18 -451 61 -775 106 -80 11 -190 26 -245 34 -55 7 -179 25 -275
38 -96 14 -242 35 -325 46 -82 11 -186 25 -230 31 -44 6 -132 17 -195 25 -164
21 -310 42 -420 59 -145 24 -149 23 -195 -37z"/>
<path d="M1556 5898 c-11 -167 -17 -563 -8 -577 6 -9 217 -51 608 -122 330
-60 766 -140 969 -178 204 -38 478 -88 610 -111 132 -23 300 -53 374 -66 74
-13 136 -22 138 -20 14 14 24 181 26 436 l2 295 -110 17 c-60 9 -153 24 -205
32 -111 17 -325 51 -460 72 -52 9 -135 22 -185 29 -49 8 -146 23 -215 34 -69
10 -201 31 -295 45 -93 14 -210 33 -260 41 -123 20 -245 39 -475 75 -339 54
-374 59 -429 70 -83 16 -79 19 -85 -72z"/>
<path d="M530 5789 c-17 -31 -26 -244 -12 -253 16 -9 140 -40 472 -115 273
-62 382 -83 391 -74 5 5 10 83 11 173 l3 165 -40 6 c-22 4 -152 23 -290 44
-220 32 -326 48 -481 71 -37 6 -43 4 -54 -17z"/>
<path d="M504 5355 c-4 -9 -4 -72 1 -138 4 -67 7 -128 8 -135 1 -20 21 -27
212 -72 l169 -41 61 26 c33 14 70 33 82 43 l23 17 -55 92 c-63 104 -32 88
-309 168 -87 26 -165 49 -172 52 -8 3 -17 -3 -20 -12z"/>
<path d="M1076 5222 c-5 -9 93 -164 123 -193 24 -23 380 -104 721 -164 107
-19 274 -50 370 -69 131 -26 176 -32 182 -23 4 7 8 32 8 57 0 25 3 61 6 82 5
30 3 38 -15 47 -29 16 -342 83 -611 130 -124 22 -286 51 -360 65 -74 13 -191
33 -260 45 -69 11 -132 22 -141 26 -10 3 -19 2 -23 -3z"/>
<path d="M4466 5158 c-11 -37 -26 -292 -19 -299 12 -12 94 -25 269 -44 77 -8
181 -19 232 -25 50 -5 134 -15 185 -20 50 -6 153 -17 227 -25 74 -8 221 -23
325 -35 105 -11 255 -27 335 -35 80 -8 201 -21 270 -29 69 -8 184 -18 257 -21
l132 -8 -38 119 c-22 66 -42 130 -45 144 -10 48 -27 60 -96 65 -36 3 -185 19
-331 35 -146 17 -329 37 -405 45 -166 17 -323 35 -624 70 -124 14 -268 30
-320 36 -52 5 -146 17 -208 25 -137 17 -142 17 -146 2z"/>
<path d="M509 4954 c-4 -30 4 -221 10 -237 6 -15 42 -31 147 -63 76 -24 147
-44 158 -44 18 0 161 74 170 89 3 4 -12 34 -33 67 l-38 59 -194 64 c-107 35
-200 66 -206 68 -7 3 -14 1 -14 -3z"/>
<path d="M2584 4907 c-8 -21 0 -815 8 -823 8 -7 795 -153 831 -154 17 0 17 23
15 419 -2 231 -6 423 -10 426 -7 7 -794 145 -826 145 -7 0 -15 -6 -18 -13z"/>
<path d="M1122 4875 c-28 -20 -52 -40 -52 -45 0 -23 73 -118 93 -123 12 -2 85
-19 162 -37 77 -18 188 -42 246 -55 58 -13 281 -71 496 -129 214 -58 395 -106
402 -106 15 0 15 196 0 206 -20 12 -1254 324 -1283 324 -6 0 -35 -16 -64 -35z"/>
<path d="M3593 4655 c1 -47 4 -85 7 -85 3 0 312 -47 685 -104 374 -58 703
-107 731 -110 27 -3 169 -23 314 -46 145 -22 298 -43 341 -46 l78 -7 53 42
c63 50 208 189 208 200 0 4 -69 15 -152 25 -281 33 -392 46 -563 66 -93 10
-229 26 -301 34 -72 9 -225 29 -340 46 -115 16 -214 30 -221 30 -6 0 -33 -21
-59 -46 l-48 -47 -85 6 c-79 6 -174 22 -276 47 -180 44 -338 80 -355 80 -18 0
-19 -6 -17 -85z"/>
<path d="M1037 4565 c-37 -35 -67 -65 -67 -68 0 -7 153 -47 665 -172 259 -64
543 -134 632 -156 89 -22 170 -39 179 -37 14 2 18 17 22 75 3 64 2 72 -17 83
-12 6 -109 28 -216 50 -189 38 -794 187 -925 229 -36 11 -97 28 -135 39 l-70
19 -68 -62z"/>
<path d="M563 4379 c11 -54 72 -171 109 -206 34 -33 136 -64 653 -199 94 -24
247 -64 340 -89 262 -69 1032 -221 1340 -264 145 -21 267 -42 465 -82 107 -21
251 -46 320 -54 69 -9 193 -29 275 -45 83 -16 245 -43 360 -60 116 -17 302
-46 415 -65 171 -29 687 -98 890 -119 107 -12 688 -47 915 -56 127 -5 299 -12
383 -16 108 -5 152 -4 152 4 0 9 -50 174 -54 178 0 1 -138 9 -306 18 -389 21
-843 63 -1370 125 -91 11 -210 25 -265 31 -55 6 -224 31 -375 55 -258 41 -477
76 -700 110 -52 8 -151 22 -220 30 -69 9 -244 36 -390 60 -146 24 -305 49
-355 55 -136 17 -558 87 -660 110 -49 11 -232 49 -405 84 -439 90 -451 93
-580 128 -366 98 -701 204 -924 294 -17 7 -19 4 -13 -27z"/>
<path d="M3590 4334 c0 -44 4 -84 8 -89 9 -13 206 -49 462 -85 127 -17 349
-48 470 -65 149 -21 392 -52 550 -70 69 -9 136 -17 150 -20 14 -3 95 -12 180
-20 85 -8 187 -19 225 -25 39 -5 82 -9 97 -10 l27 0 -18 43 c-11 23 -25 66
-32 95 -7 28 -17 52 -22 52 -16 0 -758 89 -1007 121 -276 35 -663 90 -840 119
-69 11 -153 23 -187 27 l-63 6 0 -79z"/>
<path d="M6012 4311 c-52 -44 -101 -85 -110 -90 -14 -8 -6 -20 52 -73 38 -35
82 -72 98 -82 37 -24 193 -48 517 -81 280 -29 331 -30 331 -12 0 6 -25 86 -54
177 l-54 165 -78 8 c-221 23 -543 59 -574 63 -32 5 -42 0 -128 -75z"/>
<path d="M3600 3993 c0 -124 -4 -121 211 -153 74 -11 184 -27 244 -35 252 -34
426 -57 525 -70 108 -15 292 -43 460 -70 526 -84 930 -131 930 -109 0 25 -182
176 -232 193 -18 6 -80 17 -138 25 -58 8 -175 26 -260 40 -85 14 -216 35 -290
46 -74 12 -175 27 -225 35 -49 8 -137 21 -195 30 -130 19 -314 47 -535 81 -93
14 -228 34 -298 45 -71 10 -144 21 -163 25 l-34 6 0 -89z"/>
<path d="M6007 3870 c-43 -34 -77 -66 -77 -72 0 -9 32 -40 132 -127 35 -30 43
-33 175 -47 76 -8 248 -30 383 -49 344 -47 413 -56 418 -51 6 7 -106 340 -115
343 -4 1 -170 14 -368 27 -198 14 -385 28 -416 32 l-56 6 -76 -62z"/>
</g>
</svg>
